<mxfile host="app.diagrams.net" agent="Mozilla/5.0 (Windows NT 10.0; Win64; x64) AppleWebKit/537.36 (KHTML, like Gecko) Chrome/134.0.0.0 Safari/537.36 Edg/134.0.0.0" version="26.1.0">
  <diagram name="第 1 页" id="LqIXhOMh7RyWePrIoJnF">
    <mxGraphModel dx="1878" dy="896" grid="1" gridSize="10" guides="1" tooltips="1" connect="1" arrows="1" fold="1" page="1" pageScale="1" pageWidth="827" pageHeight="1169" math="0" shadow="0">
      <root>
        <mxCell id="0" />
        <mxCell id="1" parent="0" />
        <mxCell id="6tpSNFjBKZhkVtHwbKnZ-6" value="" style="edgeStyle=orthogonalEdgeStyle;rounded=0;orthogonalLoop=1;jettySize=auto;html=1;" edge="1" parent="1" source="6tpSNFjBKZhkVtHwbKnZ-1">
          <mxGeometry relative="1" as="geometry">
            <mxPoint x="390" y="200" as="targetPoint" />
          </mxGeometry>
        </mxCell>
        <mxCell id="6tpSNFjBKZhkVtHwbKnZ-1" value="开始&lt;div&gt;(不考虑即插即充)&lt;/div&gt;" style="rounded=0;whiteSpace=wrap;html=1;" vertex="1" parent="1">
          <mxGeometry x="330" y="80" width="120" height="60" as="geometry" />
        </mxCell>
        <mxCell id="6tpSNFjBKZhkVtHwbKnZ-2" value="白名单充电使用前提如下" style="swimlane;fontStyle=0;childLayout=stackLayout;horizontal=1;startSize=26;fillColor=none;horizontalStack=0;resizeParent=1;resizeParentMax=0;resizeLast=0;collapsible=1;marginBottom=0;whiteSpace=wrap;html=1;" vertex="1" parent="1">
          <mxGeometry width="140" height="70" as="geometry" />
        </mxCell>
        <mxCell id="6tpSNFjBKZhkVtHwbKnZ-3" value="使能网络且卡片类型：5" style="text;strokeColor=none;fillColor=none;align=left;verticalAlign=top;spacingLeft=4;spacingRight=4;overflow=hidden;rotatable=0;points=[[0,0.5],[1,0.5]];portConstraint=eastwest;whiteSpace=wrap;html=1;" vertex="1" parent="6tpSNFjBKZhkVtHwbKnZ-2">
          <mxGeometry y="26" width="140" height="44" as="geometry" />
        </mxCell>
        <mxCell id="6tpSNFjBKZhkVtHwbKnZ-15" style="edgeStyle=orthogonalEdgeStyle;rounded=0;orthogonalLoop=1;jettySize=auto;html=1;exitX=1;exitY=0.5;exitDx=0;exitDy=0;" edge="1" parent="1" source="6tpSNFjBKZhkVtHwbKnZ-11">
          <mxGeometry relative="1" as="geometry">
            <mxPoint x="390" y="160" as="targetPoint" />
            <Array as="points">
              <mxPoint x="470" y="240" />
              <mxPoint x="470" y="160" />
            </Array>
          </mxGeometry>
        </mxCell>
        <mxCell id="6tpSNFjBKZhkVtHwbKnZ-33" value="" style="edgeStyle=orthogonalEdgeStyle;rounded=0;orthogonalLoop=1;jettySize=auto;html=1;" edge="1" parent="1" source="6tpSNFjBKZhkVtHwbKnZ-11" target="6tpSNFjBKZhkVtHwbKnZ-32">
          <mxGeometry relative="1" as="geometry" />
        </mxCell>
        <mxCell id="6tpSNFjBKZhkVtHwbKnZ-11" value="是否插枪" style="rhombus;whiteSpace=wrap;html=1;" vertex="1" parent="1">
          <mxGeometry x="330" y="200" width="120" height="80" as="geometry" />
        </mxCell>
        <mxCell id="6tpSNFjBKZhkVtHwbKnZ-16" value="否" style="text;html=1;align=center;verticalAlign=middle;resizable=0;points=[];autosize=1;strokeColor=none;fillColor=none;" vertex="1" parent="1">
          <mxGeometry x="460" y="178" width="40" height="30" as="geometry" />
        </mxCell>
        <mxCell id="6tpSNFjBKZhkVtHwbKnZ-17" value="是" style="text;html=1;align=center;verticalAlign=middle;resizable=0;points=[];autosize=1;strokeColor=none;fillColor=none;" vertex="1" parent="1">
          <mxGeometry x="440" y="280" width="40" height="30" as="geometry" />
        </mxCell>
        <mxCell id="6tpSNFjBKZhkVtHwbKnZ-28" value="" style="edgeStyle=orthogonalEdgeStyle;rounded=0;orthogonalLoop=1;jettySize=auto;html=1;" edge="1" parent="1" source="6tpSNFjBKZhkVtHwbKnZ-19" target="6tpSNFjBKZhkVtHwbKnZ-27">
          <mxGeometry relative="1" as="geometry" />
        </mxCell>
        <mxCell id="6tpSNFjBKZhkVtHwbKnZ-40" value="" style="edgeStyle=orthogonalEdgeStyle;rounded=0;orthogonalLoop=1;jettySize=auto;html=1;" edge="1" parent="1" source="6tpSNFjBKZhkVtHwbKnZ-19" target="6tpSNFjBKZhkVtHwbKnZ-39">
          <mxGeometry relative="1" as="geometry" />
        </mxCell>
        <mxCell id="6tpSNFjBKZhkVtHwbKnZ-19" value="是否有按下屏幕的充电按钮？" style="rhombus;whiteSpace=wrap;html=1;" vertex="1" parent="1">
          <mxGeometry x="300" y="420" width="180" height="98" as="geometry" />
        </mxCell>
        <mxCell id="6tpSNFjBKZhkVtHwbKnZ-22" value="否" style="text;html=1;align=center;verticalAlign=middle;resizable=0;points=[];autosize=1;strokeColor=none;fillColor=none;" vertex="1" parent="1">
          <mxGeometry x="250" y="442" width="40" height="30" as="geometry" />
        </mxCell>
        <mxCell id="6tpSNFjBKZhkVtHwbKnZ-26" value="是" style="text;html=1;align=center;verticalAlign=middle;resizable=0;points=[];autosize=1;strokeColor=none;fillColor=none;" vertex="1" parent="1">
          <mxGeometry x="414" y="518" width="40" height="30" as="geometry" />
        </mxCell>
        <mxCell id="6tpSNFjBKZhkVtHwbKnZ-27" value="直接刷卡充电" style="rounded=0;whiteSpace=wrap;html=1;" vertex="1" parent="1">
          <mxGeometry x="100" y="439" width="120" height="60" as="geometry" />
        </mxCell>
        <mxCell id="6tpSNFjBKZhkVtHwbKnZ-36" value="" style="edgeStyle=orthogonalEdgeStyle;rounded=0;orthogonalLoop=1;jettySize=auto;html=1;" edge="1" parent="1" source="6tpSNFjBKZhkVtHwbKnZ-32" target="6tpSNFjBKZhkVtHwbKnZ-35">
          <mxGeometry relative="1" as="geometry" />
        </mxCell>
        <mxCell id="6tpSNFjBKZhkVtHwbKnZ-37" value="否" style="edgeLabel;html=1;align=center;verticalAlign=middle;resizable=0;points=[];" vertex="1" connectable="0" parent="6tpSNFjBKZhkVtHwbKnZ-36">
          <mxGeometry x="-0.0597" y="1" relative="1" as="geometry">
            <mxPoint y="-11" as="offset" />
          </mxGeometry>
        </mxCell>
        <mxCell id="6tpSNFjBKZhkVtHwbKnZ-38" value="" style="edgeStyle=orthogonalEdgeStyle;rounded=0;orthogonalLoop=1;jettySize=auto;html=1;" edge="1" parent="1" source="6tpSNFjBKZhkVtHwbKnZ-32" target="6tpSNFjBKZhkVtHwbKnZ-19">
          <mxGeometry relative="1" as="geometry" />
        </mxCell>
        <mxCell id="6tpSNFjBKZhkVtHwbKnZ-32" value="卡片类型是否不等于3？" style="rhombus;whiteSpace=wrap;html=1;" vertex="1" parent="1">
          <mxGeometry x="315" y="310" width="150" height="80" as="geometry" />
        </mxCell>
        <mxCell id="6tpSNFjBKZhkVtHwbKnZ-35" value="等待无卡模式点击充电" style="whiteSpace=wrap;html=1;" vertex="1" parent="1">
          <mxGeometry x="100" y="320" width="120" height="60" as="geometry" />
        </mxCell>
        <mxCell id="6tpSNFjBKZhkVtHwbKnZ-42" value="" style="edgeStyle=orthogonalEdgeStyle;rounded=0;orthogonalLoop=1;jettySize=auto;html=1;" edge="1" parent="1" source="6tpSNFjBKZhkVtHwbKnZ-39" target="6tpSNFjBKZhkVtHwbKnZ-41">
          <mxGeometry relative="1" as="geometry" />
        </mxCell>
        <mxCell id="6tpSNFjBKZhkVtHwbKnZ-39" value="屏幕跳转至刷卡页面" style="whiteSpace=wrap;html=1;" vertex="1" parent="1">
          <mxGeometry x="330" y="570" width="120" height="60" as="geometry" />
        </mxCell>
        <mxCell id="6tpSNFjBKZhkVtHwbKnZ-44" value="" style="edgeStyle=orthogonalEdgeStyle;rounded=0;orthogonalLoop=1;jettySize=auto;html=1;" edge="1" parent="1" source="6tpSNFjBKZhkVtHwbKnZ-41">
          <mxGeometry relative="1" as="geometry">
            <mxPoint x="520" y="715" as="targetPoint" />
          </mxGeometry>
        </mxCell>
        <mxCell id="6tpSNFjBKZhkVtHwbKnZ-45" value="是" style="edgeLabel;html=1;align=center;verticalAlign=middle;resizable=0;points=[];" vertex="1" connectable="0" parent="6tpSNFjBKZhkVtHwbKnZ-44">
          <mxGeometry x="-0.3905" y="-1" relative="1" as="geometry">
            <mxPoint x="21" y="4" as="offset" />
          </mxGeometry>
        </mxCell>
        <mxCell id="6tpSNFjBKZhkVtHwbKnZ-47" value="" style="edgeStyle=orthogonalEdgeStyle;rounded=0;orthogonalLoop=1;jettySize=auto;html=1;entryX=1;entryY=0.5;entryDx=0;entryDy=0;" edge="1" parent="1" source="6tpSNFjBKZhkVtHwbKnZ-41" target="6tpSNFjBKZhkVtHwbKnZ-48">
          <mxGeometry relative="1" as="geometry">
            <mxPoint x="220" y="715" as="targetPoint" />
          </mxGeometry>
        </mxCell>
        <mxCell id="6tpSNFjBKZhkVtHwbKnZ-54" value="否" style="edgeLabel;html=1;align=center;verticalAlign=middle;resizable=0;points=[];" vertex="1" connectable="0" parent="6tpSNFjBKZhkVtHwbKnZ-47">
          <mxGeometry x="-0.0157" y="-4" relative="1" as="geometry">
            <mxPoint x="7" y="-15" as="offset" />
          </mxGeometry>
        </mxCell>
        <mxCell id="6tpSNFjBKZhkVtHwbKnZ-41" value="是否使能网络" style="rhombus;whiteSpace=wrap;html=1;" vertex="1" parent="1">
          <mxGeometry x="315" y="680" width="150" height="70" as="geometry" />
        </mxCell>
        <mxCell id="6tpSNFjBKZhkVtHwbKnZ-53" value="" style="edgeStyle=orthogonalEdgeStyle;rounded=0;orthogonalLoop=1;jettySize=auto;html=1;" edge="1" parent="1" source="6tpSNFjBKZhkVtHwbKnZ-48" target="6tpSNFjBKZhkVtHwbKnZ-52">
          <mxGeometry relative="1" as="geometry" />
        </mxCell>
        <mxCell id="6tpSNFjBKZhkVtHwbKnZ-48" value="是否有刷卡动作" style="rhombus;whiteSpace=wrap;html=1;" vertex="1" parent="1">
          <mxGeometry x="150" y="675" width="130" height="80" as="geometry" />
        </mxCell>
        <mxCell id="6tpSNFjBKZhkVtHwbKnZ-71" value="" style="edgeStyle=orthogonalEdgeStyle;rounded=0;orthogonalLoop=1;jettySize=auto;html=1;" edge="1" parent="1" source="6tpSNFjBKZhkVtHwbKnZ-49" target="6tpSNFjBKZhkVtHwbKnZ-70">
          <mxGeometry relative="1" as="geometry" />
        </mxCell>
        <mxCell id="6tpSNFjBKZhkVtHwbKnZ-76" value="" style="edgeStyle=orthogonalEdgeStyle;rounded=0;orthogonalLoop=1;jettySize=auto;html=1;" edge="1" parent="1" source="6tpSNFjBKZhkVtHwbKnZ-49" target="6tpSNFjBKZhkVtHwbKnZ-75">
          <mxGeometry relative="1" as="geometry" />
        </mxCell>
        <mxCell id="6tpSNFjBKZhkVtHwbKnZ-49" value="是否成功联网" style="rhombus;whiteSpace=wrap;html=1;" vertex="1" parent="1">
          <mxGeometry x="520" y="675" width="130" height="80" as="geometry" />
        </mxCell>
        <mxCell id="6tpSNFjBKZhkVtHwbKnZ-56" value="" style="edgeStyle=orthogonalEdgeStyle;rounded=0;orthogonalLoop=1;jettySize=auto;html=1;" edge="1" parent="1" source="6tpSNFjBKZhkVtHwbKnZ-52" target="6tpSNFjBKZhkVtHwbKnZ-55">
          <mxGeometry relative="1" as="geometry" />
        </mxCell>
        <mxCell id="6tpSNFjBKZhkVtHwbKnZ-59" value="" style="edgeStyle=orthogonalEdgeStyle;rounded=0;orthogonalLoop=1;jettySize=auto;html=1;" edge="1" parent="1" source="6tpSNFjBKZhkVtHwbKnZ-52" target="6tpSNFjBKZhkVtHwbKnZ-58">
          <mxGeometry relative="1" as="geometry" />
        </mxCell>
        <mxCell id="6tpSNFjBKZhkVtHwbKnZ-68" value="是" style="edgeLabel;html=1;align=center;verticalAlign=middle;resizable=0;points=[];" vertex="1" connectable="0" parent="6tpSNFjBKZhkVtHwbKnZ-59">
          <mxGeometry x="-0.3106" y="2" relative="1" as="geometry">
            <mxPoint x="13" as="offset" />
          </mxGeometry>
        </mxCell>
        <mxCell id="6tpSNFjBKZhkVtHwbKnZ-52" value="卡片类型是否为5？" style="rhombus;whiteSpace=wrap;html=1;" vertex="1" parent="1">
          <mxGeometry x="152.5" y="790" width="125" height="80" as="geometry" />
        </mxCell>
        <mxCell id="6tpSNFjBKZhkVtHwbKnZ-55" value="卡片类型为0开启充电" style="whiteSpace=wrap;html=1;" vertex="1" parent="1">
          <mxGeometry y="800" width="120" height="60" as="geometry" />
        </mxCell>
        <mxCell id="6tpSNFjBKZhkVtHwbKnZ-57" value="否" style="text;html=1;align=center;verticalAlign=middle;resizable=0;points=[];autosize=1;strokeColor=none;fillColor=none;" vertex="1" parent="1">
          <mxGeometry x="120" y="798" width="40" height="30" as="geometry" />
        </mxCell>
        <mxCell id="6tpSNFjBKZhkVtHwbKnZ-61" value="" style="edgeStyle=orthogonalEdgeStyle;rounded=0;orthogonalLoop=1;jettySize=auto;html=1;" edge="1" parent="1" source="6tpSNFjBKZhkVtHwbKnZ-58" target="6tpSNFjBKZhkVtHwbKnZ-60">
          <mxGeometry relative="1" as="geometry" />
        </mxCell>
        <mxCell id="6tpSNFjBKZhkVtHwbKnZ-58" value="将卡号与文件存的所有卡号对比" style="whiteSpace=wrap;html=1;" vertex="1" parent="1">
          <mxGeometry x="155" y="930" width="120" height="60" as="geometry" />
        </mxCell>
        <mxCell id="6tpSNFjBKZhkVtHwbKnZ-63" value="" style="edgeStyle=orthogonalEdgeStyle;rounded=0;orthogonalLoop=1;jettySize=auto;html=1;" edge="1" parent="1" source="6tpSNFjBKZhkVtHwbKnZ-60" target="6tpSNFjBKZhkVtHwbKnZ-62">
          <mxGeometry relative="1" as="geometry" />
        </mxCell>
        <mxCell id="6tpSNFjBKZhkVtHwbKnZ-66" value="" style="edgeStyle=orthogonalEdgeStyle;rounded=0;orthogonalLoop=1;jettySize=auto;html=1;" edge="1" parent="1" source="6tpSNFjBKZhkVtHwbKnZ-60" target="6tpSNFjBKZhkVtHwbKnZ-65">
          <mxGeometry relative="1" as="geometry" />
        </mxCell>
        <mxCell id="6tpSNFjBKZhkVtHwbKnZ-60" value="匹配成功" style="rhombus;whiteSpace=wrap;html=1;" vertex="1" parent="1">
          <mxGeometry x="147.5" y="1030" width="135" height="70" as="geometry" />
        </mxCell>
        <mxCell id="6tpSNFjBKZhkVtHwbKnZ-62" value="提示匹配失败" style="whiteSpace=wrap;html=1;" vertex="1" parent="1">
          <mxGeometry y="1035" width="120" height="60" as="geometry" />
        </mxCell>
        <mxCell id="6tpSNFjBKZhkVtHwbKnZ-64" value="否" style="text;html=1;align=center;verticalAlign=middle;resizable=0;points=[];autosize=1;strokeColor=none;fillColor=none;" vertex="1" parent="1">
          <mxGeometry x="120" y="1030" width="40" height="30" as="geometry" />
        </mxCell>
        <mxCell id="6tpSNFjBKZhkVtHwbKnZ-65" value="进入自检，后续流程与正常充电一致" style="whiteSpace=wrap;html=1;" vertex="1" parent="1">
          <mxGeometry x="155" y="1185" width="120" height="60" as="geometry" />
        </mxCell>
        <mxCell id="6tpSNFjBKZhkVtHwbKnZ-67" value="是" style="text;html=1;align=center;verticalAlign=middle;resizable=0;points=[];autosize=1;strokeColor=none;fillColor=none;" vertex="1" parent="1">
          <mxGeometry x="210" y="758" width="40" height="30" as="geometry" />
        </mxCell>
        <mxCell id="6tpSNFjBKZhkVtHwbKnZ-69" value="是" style="text;html=1;align=center;verticalAlign=middle;resizable=0;points=[];autosize=1;strokeColor=none;fillColor=none;" vertex="1" parent="1">
          <mxGeometry x="210" y="1118" width="40" height="30" as="geometry" />
        </mxCell>
        <mxCell id="6tpSNFjBKZhkVtHwbKnZ-70" value="就算刷卡了，什么也不做，无提示" style="whiteSpace=wrap;html=1;" vertex="1" parent="1">
          <mxGeometry x="700" y="685" width="120" height="60" as="geometry" />
        </mxCell>
        <mxCell id="6tpSNFjBKZhkVtHwbKnZ-74" value="是" style="text;html=1;align=center;verticalAlign=middle;resizable=0;points=[];autosize=1;strokeColor=none;fillColor=none;" vertex="1" parent="1">
          <mxGeometry x="640" y="708" width="40" height="30" as="geometry" />
        </mxCell>
        <mxCell id="6tpSNFjBKZhkVtHwbKnZ-78" value="" style="edgeStyle=orthogonalEdgeStyle;rounded=0;orthogonalLoop=1;jettySize=auto;html=1;" edge="1" parent="1" source="6tpSNFjBKZhkVtHwbKnZ-75" target="6tpSNFjBKZhkVtHwbKnZ-77">
          <mxGeometry relative="1" as="geometry" />
        </mxCell>
        <mxCell id="6tpSNFjBKZhkVtHwbKnZ-79" style="edgeStyle=orthogonalEdgeStyle;rounded=0;orthogonalLoop=1;jettySize=auto;html=1;exitX=1;exitY=0.5;exitDx=0;exitDy=0;" edge="1" parent="1">
          <mxGeometry relative="1" as="geometry">
            <mxPoint x="585" y="770" as="targetPoint" />
            <mxPoint x="645" y="830" as="sourcePoint" />
            <Array as="points">
              <mxPoint x="665" y="830" />
              <mxPoint x="665" y="770" />
            </Array>
          </mxGeometry>
        </mxCell>
        <mxCell id="6tpSNFjBKZhkVtHwbKnZ-80" value="否" style="edgeLabel;html=1;align=center;verticalAlign=middle;resizable=0;points=[];" vertex="1" connectable="0" parent="6tpSNFjBKZhkVtHwbKnZ-79">
          <mxGeometry x="-0.253" y="2" relative="1" as="geometry">
            <mxPoint as="offset" />
          </mxGeometry>
        </mxCell>
        <mxCell id="6tpSNFjBKZhkVtHwbKnZ-75" value="是否有刷卡动作" style="rhombus;whiteSpace=wrap;html=1;" vertex="1" parent="1">
          <mxGeometry x="520" y="790" width="130" height="80" as="geometry" />
        </mxCell>
        <mxCell id="6tpSNFjBKZhkVtHwbKnZ-83" value="" style="edgeStyle=orthogonalEdgeStyle;rounded=0;orthogonalLoop=1;jettySize=auto;html=1;" edge="1" parent="1" source="6tpSNFjBKZhkVtHwbKnZ-77" target="6tpSNFjBKZhkVtHwbKnZ-82">
          <mxGeometry relative="1" as="geometry" />
        </mxCell>
        <mxCell id="6tpSNFjBKZhkVtHwbKnZ-88" value="" style="edgeStyle=orthogonalEdgeStyle;rounded=0;orthogonalLoop=1;jettySize=auto;html=1;" edge="1" parent="1" source="6tpSNFjBKZhkVtHwbKnZ-77" target="6tpSNFjBKZhkVtHwbKnZ-87">
          <mxGeometry relative="1" as="geometry" />
        </mxCell>
        <mxCell id="6tpSNFjBKZhkVtHwbKnZ-77" value="卡片类型是否为5？" style="rhombus;whiteSpace=wrap;html=1;" vertex="1" parent="1">
          <mxGeometry x="522.5" y="900" width="125" height="80" as="geometry" />
        </mxCell>
        <mxCell id="6tpSNFjBKZhkVtHwbKnZ-81" value="是" style="text;html=1;align=center;verticalAlign=middle;resizable=0;points=[];autosize=1;strokeColor=none;fillColor=none;" vertex="1" parent="1">
          <mxGeometry x="580" y="870" width="40" height="30" as="geometry" />
        </mxCell>
        <mxCell id="6tpSNFjBKZhkVtHwbKnZ-82" value="" style="whiteSpace=wrap;html=1;" vertex="1" parent="1">
          <mxGeometry x="707" y="910" width="120" height="60" as="geometry" />
        </mxCell>
        <mxCell id="6tpSNFjBKZhkVtHwbKnZ-84" value="否" style="text;html=1;align=center;verticalAlign=middle;resizable=0;points=[];autosize=1;strokeColor=none;fillColor=none;" vertex="1" parent="1">
          <mxGeometry x="650" y="918" width="40" height="30" as="geometry" />
        </mxCell>
        <mxCell id="6tpSNFjBKZhkVtHwbKnZ-87" value="与uu平台交互，判断卡片是否有效" style="whiteSpace=wrap;html=1;" vertex="1" parent="1">
          <mxGeometry x="525" y="1015" width="120" height="60" as="geometry" />
        </mxCell>
      </root>
    </mxGraphModel>
  </diagram>
</mxfile>
